<svg xmlns="http://www.w3.org/2000/svg" aria-hidden="true" style="position:absolute;width:0;height:0;overflow:hidden"><defs><symbol id="icon-icon-four" viewBox="0 0 64 32"><path fill="#f4f4fd" d="M.853 0h54.613c.471 0 .853.382.853.853V23.04a.853.853 0 0 1-.853.853H.853A.853.853 0 0 1 0 23.04V.853C0 .382.382 0 .853 0z" style="fill:var(--color1, #f4f4fd)"/><path fill="#4d5ae5" d="M34.976 7.05a.225.225 0 0 0-.182-.154h-.001l-.815-.119-.365-.739c-.077-.156-.332-.156-.408 0l-.365.739-.815.119a.226.226 0 0 0-.183.153v.002a.229.229 0 0 0 .058.233l.59.575-.139.812a.226.226 0 0 0 .33.24l.729-.383.729.383a.219.219 0 0 0 .106.026c.05 0 .097-.016.134-.044h-.001a.227.227 0 0 0 .09-.223l-.139-.812.59-.575a.227.227 0 0 0 .056-.235v.002zm-1.051.566a.228.228 0 0 0-.065.201l.081.475-.427-.224a.226.226 0 0 0-.213.001l.001-.001-.427.224.081-.475a.226.226 0 0 0-.066-.202l-.346-.337.477-.069a.226.226 0 0 0 .171-.125l.214-.432.213.432a.225.225 0 0 0 .171.124l.477.069-.345.337zm-1.441 6.26h-.455v.455h.455v-.455zm0 .91h-.455v.455h.455v-.455zm.455-.455h-.455v.455h.455v-.455zm-.91 0h-.455v.455h.455v-.455zm-1.138 2.048h-.455v.455h.455v-.455zm0 .911h-.455v.455h.455v-.455zm.455-.456h-.455v.455h.455v-.455zm-.91 0h-.455v.455h.455v-.455zm-2.276-1.365h-.455v.455h.455v-.455zm0 .91h-.455v.455h.455v-.455zm.455-.455h-.455v.455h.455v-.455zm-.91 0h-.455v.455h.455v-.455zm-3.869-8.192h-.455v.455h.455v-.455zm0 .91h-.455v.455h.455v-.455zm.455-.455h-.455v.455h.455v-.455zm-.91 0h-.455v.455h.455v-.455z" style="fill:var(--color2, #4d5ae5)"/><path fill="#2e2f42" d="M31.878 11.161a.752.752 0 0 0-.503-.3h-.004a.753.753 0 0 0-.573.151l.002-.001-.534.409-.81.605-.579-.231a2.96 2.96 0 0 0 1.755-2.697c0-1.631-1.332-2.958-2.97-2.958s-2.97 1.327-2.97 2.958c0 .591.177 1.141.478 1.604l-1.181-.01-.01.002a.217.217 0 0 0-.068.014l.002-.001c-.006.002-.011.003-.016.006l-.008.003-1.38.681-.808.389a.327.327 0 0 0-.027.015h.001a.76.76 0 0 0-.253.984l-.002-.004a.763.763 0 0 0 .445.378l.005.001a.755.755 0 0 0 .592-.056l-.004.002.592-.315.966-.499.579-.003-2.894 2.88a.703.703 0 0 0-.209.501v.002c.001.392.319.71.711.71h.001a.712.712 0 0 0 .504-.207l.561-.559.743-.555.384.383-1.324 1.318a.703.703 0 0 0-.209.501v.002a.712.712 0 0 0 .712.71h.001a.71.71 0 0 0 .502-.207l1.915-1.908c.003-.003.007-.004.009-.007l2.204-2.414 1.481.211a.222.222 0 0 0 .114-.015l-.002.001a.2.2 0 0 0 .021-.01c.008-.004.017-.006.025-.012l1.371-.91c.005-.003.008-.009.013-.013s.012-.006.017-.011l.543-.508a.758.758 0 0 0 .089-1.009l.001.002zm-9.636 1.541a.3.3 0 0 1-.238.022.305.305 0 0 1-.091-.537l.001-.001.561-.27.135.394.057.166-.423.225zm1.492-.78-.661.341-.187-.548.865-.427-.017.633zm6.443-2.825c0 .392-.094.762-.256 1.092l-1.784-.81a.794.794 0 0 0-.334-.591l-.002-.002.625-2.074a2.509 2.509 0 0 1 1.751 2.384zm-5.03 0a2.512 2.512 0 0 1 2.833-2.481l-.611 2.028-.024-.002a.8.8 0 0 0-.799.796.795.795 0 0 0 1.489.393l1.648.749a2.513 2.513 0 0 1-2.021 1.02 2.512 2.512 0 0 1-2.515-2.503zm2.541.342a.343.343 0 0 1-.344.341h-.001A.343.343 0 0 1 27 9.439c0-.188.154-.341.344-.341s.344.153.344.341zm-5.303 6.41a.26.26 0 0 1-.364 0 .255.255 0 0 1 0-.36l.41-.409.363.362-.409.407zm1.371 1.593a.26.26 0 0 1-.364 0 .255.255 0 0 1 0-.36l.411-.409.363.362-.409.407zm1.486-1.48h-.001l-.753.751-.364-.362.752-.749h.001a.215.215 0 0 0 .038-.058c.003-.006.009-.011.011-.017.007-.018.008-.036.011-.055.001-.01.006-.02.006-.031 0-.015-.005-.03-.009-.045-.003-.014-.003-.028-.008-.041a.241.241 0 0 0-.039-.059c-.004-.005-.006-.012-.011-.016v-.001l-.686-.683c-.007-.007-.017-.01-.025-.016a.225.225 0 0 0-.036-.024l-.001-.001a.335.335 0 0 0-.038-.014h-.001a.193.193 0 0 0-.043-.008H24.036l-.033.002h.001a.312.312 0 0 0-.046.009h.002a.223.223 0 0 0-.041.02l.001-.001c-.009.005-.018.006-.026.012l-.757.565-.384-.383 1.024-1.018 1.86 1.83-.396.392zm2.909-2.994c-.007-.001-.013.002-.019.001h-.012a.219.219 0 0 0-.077.013l.002-.001a.183.183 0 0 0-.042.021l.001-.001a.332.332 0 0 0-.036.026c-.006.005-.012.007-.017.012l-2.005 2.196-1.847-1.816 1.209-1.202a.228.228 0 0 0-.161-.389h-.001l-.947.006.012-.686 1.324.011a2.958 2.958 0 0 0 2.124.896h.001c.187 0 .369-.019.546-.052a.201.201 0 0 0 .055.036l1.028.41.065.323.076.378-1.281-.182zm1.724.076-.134-.665.617-.461.404.536-.887.589zm1.602-1.208-.358.335-.397-.528.355-.272a.306.306 0 0 1 .4.464z" style="fill:var(--color3, #2e2f42)"/><path fill="#2e2f42" d="m27.137 13.032-.914-.91a.228.228 0 0 0-.322 0l-.914.91a.228.228 0 0 0 0 .322l.914.91a.228.228 0 0 0 .322 0l.914-.91a.228.228 0 0 0 0-.322zm-1.075.751-.592-.589.592-.589.592.589-.592.589zm2.595-6.499-.11.442c.03.007.742.193.742.917h.455c0-.861-.711-1.265-1.087-1.359zm1.086 1.813h-.455v.455h.455v-.455z" style="fill:var(--color3, #2e2f42)"/></symbol><symbol id="icon-Icon-one" viewBox="0 0 64 32"><path fill="#f4f4fd" d="M.853 0h54.613c.471 0 .853.382.853.853V23.04a.853.853 0 0 1-.853.853H.853A.853.853 0 0 1 0 23.04V.853C0 .382.382 0 .853 0z" style="fill:var(--color1, #f4f4fd)"/><path fill="#2e2f42" d="m34.463 14.548-3.602-3.629.4-1.969c.103.04.213.061.324.062H31.599a.92.92 0 1 0-.866-.606l-.002-.006-2.116.258-3.452-3.47a.225.225 0 0 0-.32-.002l-.645.642a.228.228 0 0 0 0 .322l.347.352a6.293 6.293 0 0 0-.775 3.046c0 1.752.706 3.338 1.85 4.491a.242.242 0 0 0 .062.042c-.014.07-.022.151-.022.233v2.64h-2.731a1.14 1.14 0 0 0-1.138 1.138v.455c0 .126.102.228.228.228h10.468a.227.227 0 0 0 .227-.228v-.455a1.14 1.14 0 0 0-1.138-1.138h-2.731v-1.17a6.314 6.314 0 0 0 4.338-.64l-.033.017.349.351a.225.225 0 0 0 .32.002l.645-.642a.228.228 0 0 0 0-.322zm-3.197-6.769a.455.455 0 1 1 .321.778h-.001a.455.455 0 0 1-.319-.778h-.001zm-.536 1.496-.255 1.257-.502-.504.757-.752zm-.258-.385-.819.814-.634-.637 1.453-.177zm1.103 8.518c.377 0 .683.306.683.683v.228H22.246v-.228c0-.377.306-.683.683-.683h8.647zm-3.186-.91v.455h-2.276v-.455h2.276zm-2.275-.455v-1.729c0-.552.511-1.001 1.138-1.001s1.138.449 1.138 1.001v1.729h-2.276zm2.73-.724v-1.006c0-.803-.714-1.456-1.593-1.456h-.025a1.62 1.62 0 0 0-1.371.756l-.004.007a5.894 5.894 0 0 1-1.626-4.074c0-.987.242-1.918.669-2.737l-.016.033 7.937 7.982a5.82 5.82 0 0 1-2.674.641c-.46 0-.908-.053-1.338-.152l.04.008zm4.817-.292-.321-.322-8.664-8.715.322-.321 3.386 3.405c.002 0 .003.003.004.004l5.596 5.628-.323.321z" style="fill:var(--color3, #2e2f42)"/><path fill="#4d5ae5" d="M27.254 13.767h-.003a.683.683 0 0 0-.001 1.366h.003a.683.683 0 0 0 .001-1.366zm.159.844a.228.228 0 1 1-.162-.39.227.227 0 0 1 .159.389h.002z" style="fill:var(--color2, #4d5ae5)"/></symbol><symbol id="icon-Icon-three" viewBox="0 0 64 32"><path fill="#f4f4fd" d="M.853 0h54.613c.471 0 .853.382.853.853V23.04a.853.853 0 0 1-.853.853H.853A.853.853 0 0 1 0 23.04V.853C0 .382.382 0 .853 0z" style="fill:var(--color1, #f4f4fd)"/><path fill="#4d5ae5" d="M27.702 11.505h.455v2.047h-.455v-2.047zm1.819.91h.455v1.137h-.455v-1.137zm-3.639.682h.455v.455h-.455v-.455zm-1.364-.227h.455v.682h-.455v-.682z" style="fill:var(--color2, #4d5ae5)"/><path fill="#2e2f42" d="M22.016 17.191h10.917a.682.682 0 0 0 .682-.682v-.91a.682.682 0 0 0-.682-.682h-.228V9.245l1.292-1.224a.686.686 0 1 0-.317-.321l-.002-.004-.973.923v-.525a.682.682 0 0 0-.682-.682h-9.097a.682.682 0 0 0-.682.682v6.823h-.227a.682.682 0 0 0-.682.682v.91c0 .377.305.682.682.682zM34.297 7.184a.227.227 0 1 1 0 .454.227.227 0 1 1 0-.454zm-11.599.909c0-.126.102-.228.227-.228h9.097c.126 0 .227.102.227.228v.955l-.455.432v-.932a.227.227 0 0 0-.227-.227h-8.188a.227.227 0 0 0-.227.227v5.686c0 .126.102.228.227.228h8.188a.227.227 0 0 0 .227-.228v-4.128l.455-.431v5.241h-9.552V8.093zm2.047 2.957h-.002a.682.682 0 1 0 .474 1.172l.791.397a.23.23 0 0 0 .272-.052l1.68-1.891 1.652 1.238a.229.229 0 0 0 .293-.017l1.436-1.36v3.469h-7.733V8.775h7.733V9.91l-1.609 1.524-1.666-1.249a.229.229 0 0 0-.306.031l-1.704 1.917-.637-.319a.57.57 0 0 0 .009-.083.682.682 0 0 0-.682-.682zm.227.682v.007a.228.228 0 1 1-.456 0v-.007a.228.228 0 0 1 .455-.001zm1.365 3.639h2.274v.227a.227.227 0 0 1-.227.227h-1.82a.227.227 0 0 1-.227-.227v-.227zm-4.549.228c0-.126.102-.227.227-.227h3.866v.227c0 .377.305.682.682.682h1.82a.682.682 0 0 0 .682-.682v-.227h3.866c.125 0 .227.102.227.227v.91a.227.227 0 0 1-.227.227H22.014a.227.227 0 0 1-.227-.227v-.91z" style="fill:var(--color3, #2e2f42)"/></symbol><symbol id="icon-icon-two" viewBox="0 0 64 32"><path fill="#f4f4fd" d="M.853 0h54.613c.471 0 .853.382.853.853V23.04a.853.853 0 0 1-.853.853H.853A.853.853 0 0 1 0 23.04V.853C0 .382.382 0 .853 0z" style="fill:var(--color1, #f4f4fd)"/><path fill="#2e2f42" d="M34.687 11.648a6.53 6.53 0 1 0-8.562 6.209l.046.013a.286.286 0 0 0 .226-.028.269.269 0 0 0 .121-.152l1.649-5.227a.816.816 0 0 0-.004-1.632h-.005a.814.814 0 0 0-.355.084l.005-.002-2.179-2.179a.271.271 0 1 0-.384.384l2.178 2.18a.797.797 0 0 0 .227.983l.002.001-1.571 4.98a5.992 5.992 0 1 1 7.694-3.551 6.031 6.031 0 0 1-3.146 3.387l-.038.015-.17-.8a.273.273 0 0 0-.447-.147l-1.637 1.462a.272.272 0 0 0 .097.462l.002.001 2.09.667a.272.272 0 0 0 .349-.317v.002l-.167-.785c2.358-1.013 3.98-3.316 3.98-5.997v-.015.001zm-6.53-.272a.272.272 0 0 1 0 .544.272.272 0 0 1 0-.544zm.896 6.342.932-.831.257 1.212-1.189-.381z" style="fill:var(--color3, #2e2f42)"/><path fill="#4d5ae5" d="M27.885 6.479v.544a.272.272 0 0 0 .544 0v-.544a.272.272 0 0 0-.544-.001zm-4.898 4.897a.272.272 0 0 0 0 .544h.544a.272.272 0 0 0 0-.544h-.544zm10.339.545a.272.272 0 0 0 0-.544h-.544a.272.272 0 0 0 0 .544h.544z" style="fill:var(--color2, #4d5ae5)"/></symbol></defs></svg>